<mxfile host="app.diagrams.net" modified="2023-11-30T07:14:31.891Z" agent="Mozilla/5.0 (Windows NT 10.0; Win64; x64) AppleWebKit/537.36 (KHTML, like Gecko) Chrome/119.0.0.0 Safari/537.36" etag="WuZ1SBYTzdUcVfW1uvtP" version="22.1.5" type="github">
  <diagram name="페이지-1" id="tweuR_0SYNlauvnUXQRA">
    <mxGraphModel dx="819" dy="433" grid="1" gridSize="10" guides="1" tooltips="1" connect="1" arrows="1" fold="1" page="1" pageScale="1" pageWidth="827" pageHeight="1169" math="0" shadow="0">
      <root>
        <mxCell id="0" />
        <mxCell id="1" parent="0" />
        <mxCell id="kTWtB9vC6gVS24yxjqdG-1" style="edgeStyle=orthogonalEdgeStyle;rounded=0;orthogonalLoop=1;jettySize=auto;html=1;exitX=1;exitY=0.5;exitDx=0;exitDy=0;entryX=0;entryY=0.5;entryDx=0;entryDy=0;endArrow=none;endFill=0;" edge="1" parent="1" source="kTWtB9vC6gVS24yxjqdG-2" target="kTWtB9vC6gVS24yxjqdG-5">
          <mxGeometry relative="1" as="geometry" />
        </mxCell>
        <mxCell id="kTWtB9vC6gVS24yxjqdG-2" value="Shop" style="html=1;whiteSpace=wrap;" vertex="1" parent="1">
          <mxGeometry x="110" y="330" width="110" height="50" as="geometry" />
        </mxCell>
        <mxCell id="kTWtB9vC6gVS24yxjqdG-3" style="edgeStyle=orthogonalEdgeStyle;rounded=0;orthogonalLoop=1;jettySize=auto;html=1;exitX=0.5;exitY=1;exitDx=0;exitDy=0;entryX=0.5;entryY=0;entryDx=0;entryDy=0;endArrow=none;endFill=0;" edge="1" parent="1" source="kTWtB9vC6gVS24yxjqdG-5" target="kTWtB9vC6gVS24yxjqdG-7">
          <mxGeometry relative="1" as="geometry" />
        </mxCell>
        <mxCell id="kTWtB9vC6gVS24yxjqdG-4" value="" style="edgeStyle=orthogonalEdgeStyle;rounded=0;orthogonalLoop=1;jettySize=auto;html=1;endArrow=none;endFill=0;" edge="1" parent="1" source="kTWtB9vC6gVS24yxjqdG-5" target="kTWtB9vC6gVS24yxjqdG-8">
          <mxGeometry relative="1" as="geometry" />
        </mxCell>
        <mxCell id="kTWtB9vC6gVS24yxjqdG-5" value="Inventory" style="html=1;whiteSpace=wrap;" vertex="1" parent="1">
          <mxGeometry x="350" y="330" width="110" height="50" as="geometry" />
        </mxCell>
        <mxCell id="kTWtB9vC6gVS24yxjqdG-6" style="edgeStyle=orthogonalEdgeStyle;rounded=0;orthogonalLoop=1;jettySize=auto;html=1;exitX=1;exitY=0.5;exitDx=0;exitDy=0;entryX=0.5;entryY=1;entryDx=0;entryDy=0;endArrow=none;endFill=0;" edge="1" parent="1" source="kTWtB9vC6gVS24yxjqdG-7" target="kTWtB9vC6gVS24yxjqdG-8">
          <mxGeometry relative="1" as="geometry" />
        </mxCell>
        <mxCell id="kTWtB9vC6gVS24yxjqdG-7" value="Product" style="html=1;whiteSpace=wrap;" vertex="1" parent="1">
          <mxGeometry x="350" y="490" width="110" height="50" as="geometry" />
        </mxCell>
        <mxCell id="kTWtB9vC6gVS24yxjqdG-8" value="Stock" style="html=1;whiteSpace=wrap;" vertex="1" parent="1">
          <mxGeometry x="534" y="330" width="110" height="50" as="geometry" />
        </mxCell>
        <mxCell id="kTWtB9vC6gVS24yxjqdG-11" value="1. 임의의 시간마다&lt;br&gt;하루 경과()" style="text;html=1;strokeColor=none;fillColor=none;align=center;verticalAlign=middle;whiteSpace=wrap;rounded=0;" vertex="1" parent="1">
          <mxGeometry x="70" y="120" width="110" height="30" as="geometry" />
        </mxCell>
        <mxCell id="kTWtB9vC6gVS24yxjqdG-12" style="edgeStyle=orthogonalEdgeStyle;rounded=0;orthogonalLoop=1;jettySize=auto;html=1;exitX=0.5;exitY=1;exitDx=0;exitDy=0;" edge="1" parent="1" source="kTWtB9vC6gVS24yxjqdG-11" target="kTWtB9vC6gVS24yxjqdG-11">
          <mxGeometry relative="1" as="geometry" />
        </mxCell>
        <mxCell id="kTWtB9vC6gVS24yxjqdG-13" value="" style="endArrow=classic;html=1;rounded=0;" edge="1" parent="1">
          <mxGeometry width="50" height="50" relative="1" as="geometry">
            <mxPoint x="380" y="247.5" as="sourcePoint" />
            <mxPoint x="380" y="302.5" as="targetPoint" />
          </mxGeometry>
        </mxCell>
        <mxCell id="kTWtB9vC6gVS24yxjqdG-21" style="edgeStyle=orthogonalEdgeStyle;rounded=0;orthogonalLoop=1;jettySize=auto;html=1;exitX=1;exitY=0.5;exitDx=0;exitDy=0;entryX=0;entryY=0.5;entryDx=0;entryDy=0;endArrow=none;endFill=0;" edge="1" parent="1" source="kTWtB9vC6gVS24yxjqdG-17" target="kTWtB9vC6gVS24yxjqdG-18">
          <mxGeometry relative="1" as="geometry" />
        </mxCell>
        <mxCell id="kTWtB9vC6gVS24yxjqdG-17" value="TimeSimulator" style="html=1;whiteSpace=wrap;" vertex="1" parent="1">
          <mxGeometry x="130" y="170" width="110" height="50" as="geometry" />
        </mxCell>
        <mxCell id="kTWtB9vC6gVS24yxjqdG-24" style="edgeStyle=orthogonalEdgeStyle;rounded=0;orthogonalLoop=1;jettySize=auto;html=1;exitX=0.5;exitY=1;exitDx=0;exitDy=0;entryX=0.5;entryY=0;entryDx=0;entryDy=0;endArrow=none;endFill=0;" edge="1" parent="1" source="kTWtB9vC6gVS24yxjqdG-18" target="kTWtB9vC6gVS24yxjqdG-5">
          <mxGeometry relative="1" as="geometry" />
        </mxCell>
        <mxCell id="kTWtB9vC6gVS24yxjqdG-29" style="edgeStyle=orthogonalEdgeStyle;rounded=0;orthogonalLoop=1;jettySize=auto;html=1;exitX=1;exitY=0.5;exitDx=0;exitDy=0;entryX=0.5;entryY=0;entryDx=0;entryDy=0;endArrow=none;endFill=0;" edge="1" parent="1" source="kTWtB9vC6gVS24yxjqdG-18" target="kTWtB9vC6gVS24yxjqdG-8">
          <mxGeometry relative="1" as="geometry" />
        </mxCell>
        <mxCell id="kTWtB9vC6gVS24yxjqdG-18" value="DecayingChecker" style="html=1;whiteSpace=wrap;" vertex="1" parent="1">
          <mxGeometry x="342" y="170" width="126" height="50" as="geometry" />
        </mxCell>
        <mxCell id="kTWtB9vC6gVS24yxjqdG-20" value="" style="endArrow=classic;html=1;rounded=0;" edge="1" parent="1">
          <mxGeometry width="50" height="50" relative="1" as="geometry">
            <mxPoint x="250" y="159.99999999999997" as="sourcePoint" />
            <mxPoint x="320" y="159.99999999999997" as="targetPoint" />
          </mxGeometry>
        </mxCell>
        <mxCell id="kTWtB9vC6gVS24yxjqdG-26" value="2. 시간 경과 notify()" style="text;html=1;strokeColor=none;fillColor=none;align=center;verticalAlign=middle;whiteSpace=wrap;rounded=0;" vertex="1" parent="1">
          <mxGeometry x="232" y="120" width="110" height="30" as="geometry" />
        </mxCell>
        <mxCell id="kTWtB9vC6gVS24yxjqdG-27" value="3. 모든 Decaying재고 중&lt;br&gt;폐기날짜가 지난 재고 선별()" style="text;html=1;strokeColor=none;fillColor=none;align=center;verticalAlign=middle;whiteSpace=wrap;rounded=0;" vertex="1" parent="1">
          <mxGeometry x="480" y="120" width="170" height="40" as="geometry" />
        </mxCell>
        <mxCell id="kTWtB9vC6gVS24yxjqdG-30" value="" style="endArrow=classic;html=1;rounded=0;" edge="1" parent="1">
          <mxGeometry width="50" height="50" relative="1" as="geometry">
            <mxPoint x="520" y="159.99999999999997" as="sourcePoint" />
            <mxPoint x="590" y="159.99999999999997" as="targetPoint" />
          </mxGeometry>
        </mxCell>
        <mxCell id="kTWtB9vC6gVS24yxjqdG-31" value="4. 해당 재고 삭제 요청()" style="text;html=1;strokeColor=none;fillColor=none;align=center;verticalAlign=middle;whiteSpace=wrap;rounded=0;" vertex="1" parent="1">
          <mxGeometry x="232" y="260" width="140" height="30" as="geometry" />
        </mxCell>
      </root>
    </mxGraphModel>
  </diagram>
</mxfile>
